<?xml version="1.0" encoding="UTF-8" standalone="no"?>
<!DOCTYPE svg PUBLIC "-//W3C//DTD SVG 1.1//EN"
 "http://www.w3.org/Graphics/SVG/1.1/DTD/svg11.dtd">
<!-- Generated by graphviz version 15.1.0 (0)
 -->
<!-- Pages: 1 -->
<svg width="1926pt" height="622pt"
 viewBox="0.00 0.00 1926.00 622.00" xmlns="http://www.w3.org/2000/svg" xmlns:xlink="http://www.w3.org/1999/xlink">
<g id="graph0" class="graph" transform="scale(1 1) rotate(0) translate(4 618)">
<polygon fill="white" stroke="none" points="-4,4 -4,-618 1921.75,-618 1921.75,4 -4,4"/>
<!-- 139808012218256 -->
<g id="node1" class="node">
<title>139808012218256</title>
<polygon fill="lightblue" stroke="black" points="301.5,-55.5 301.5,-91.5 528.75,-91.5 528.75,-55.5 301.5,-55.5"/>
<text xml:space="preserve" text-anchor="middle" x="312.88" y="-69.2" font-family="Times,serif" font-size="14.00">*</text>
<polyline fill="none" stroke="black" points="324.25,-56.25 324.25,-91.5"/>
<text xml:space="preserve" text-anchor="middle" x="375" y="-69.2" font-family="Times,serif" font-size="14.00">data 0.0000</text>
<polyline fill="none" stroke="black" points="425.75,-56.25 425.75,-91.5"/>
<text xml:space="preserve" text-anchor="middle" x="477.25" y="-69.2" font-family="Times,serif" font-size="14.00">grad 0.0000</text>
</g>
<!-- 139808012219264 -->
<g id="node24" class="node">
<title>139808012219264</title>
<polygon fill="lightblue" stroke="black" points="576.75,-138.5 576.75,-174.5 809.25,-174.5 809.25,-138.5 576.75,-138.5"/>
<text xml:space="preserve" text-anchor="middle" x="590.75" y="-152.2" font-family="Times,serif" font-size="14.00">+</text>
<polyline fill="none" stroke="black" points="604.75,-139.25 604.75,-174.5"/>
<text xml:space="preserve" text-anchor="middle" x="655.5" y="-152.2" font-family="Times,serif" font-size="14.00">data 0.0000</text>
<polyline fill="none" stroke="black" points="706.25,-139.25 706.25,-174.5"/>
<text xml:space="preserve" text-anchor="middle" x="757.75" y="-152.2" font-family="Times,serif" font-size="14.00">grad 0.0000</text>
</g>
<!-- 139808012218256&#45;&gt;139808012219264 -->
<g id="edge17" class="edge">
<title>139808012218256&#45;&gt;139808012219264</title>
<path fill="none" stroke="black" d="M477.35,-91.92C519.5,-104.6 575.65,-121.5 619.95,-134.82"/>
<polygon fill="black" stroke="black" points="618.91,-138.17 629.5,-137.7 620.93,-131.46 618.91,-138.17"/>
</g>
<!-- 139808012220160 -->
<g id="node2" class="node">
<title>139808012220160</title>
<polygon fill="white" stroke="black" points="312.88,-467.5 312.88,-503.5 517.38,-503.5 517.38,-467.5 312.88,-467.5"/>
<text xml:space="preserve" text-anchor="middle" x="363.62" y="-481.2" font-family="Times,serif" font-size="14.00">data 1.0000</text>
<polyline fill="none" stroke="black" points="414.38,-468.25 414.38,-503.5"/>
<text xml:space="preserve" text-anchor="middle" x="465.88" y="-481.2" font-family="Times,serif" font-size="14.00">grad 0.0000</text>
</g>
<!-- 139808012220944 -->
<g id="node31" class="node">
<title>139808012220944</title>
<polygon fill="lightblue" stroke="black" points="577.12,-440.5 577.12,-476.5 808.88,-476.5 808.88,-440.5 577.12,-440.5"/>
<text xml:space="preserve" text-anchor="middle" x="588.5" y="-454.2" font-family="Times,serif" font-size="14.00">*</text>
<polyline fill="none" stroke="black" points="599.88,-441.25 599.88,-476.5"/>
<text xml:space="preserve" text-anchor="middle" x="652.88" y="-454.2" font-family="Times,serif" font-size="14.00">data &#45;0.0852</text>
<polyline fill="none" stroke="black" points="705.88,-441.25 705.88,-476.5"/>
<text xml:space="preserve" text-anchor="middle" x="757.38" y="-454.2" font-family="Times,serif" font-size="14.00">grad 0.0000</text>
</g>
<!-- 139808012220160&#45;&gt;139808012220944 -->
<g id="edge15" class="edge">
<title>139808012220160&#45;&gt;139808012220944</title>
<path fill="none" stroke="black" d="M517.68,-475.56C533.28,-474.03 549.55,-472.44 565.61,-470.87"/>
<polygon fill="black" stroke="black" points="565.57,-474.39 575.18,-469.93 564.89,-467.42 565.57,-474.39"/>
</g>
<!-- 139808012220832 -->
<g id="node3" class="node">
<title>139808012220832</title>
<polygon fill="lightblue" stroke="black" points="291.75,-412.5 291.75,-448.5 538.5,-448.5 538.5,-412.5 291.75,-412.5"/>
<text xml:space="preserve" text-anchor="middle" x="310.62" y="-426.2" font-family="Times,serif" font-size="14.00">log</text>
<polyline fill="none" stroke="black" points="329.5,-413.25 329.5,-448.5"/>
<text xml:space="preserve" text-anchor="middle" x="382.5" y="-426.2" font-family="Times,serif" font-size="14.00">data &#45;0.0852</text>
<polyline fill="none" stroke="black" points="435.5,-413.25 435.5,-448.5"/>
<text xml:space="preserve" text-anchor="middle" x="487" y="-426.2" font-family="Times,serif" font-size="14.00">grad 0.0000</text>
</g>
<!-- 139808012220832&#45;&gt;139808012220944 -->
<g id="edge16" class="edge">
<title>139808012220832&#45;&gt;139808012220944</title>
<path fill="none" stroke="black" d="M538.73,-442.94C547.64,-443.85 556.63,-444.76 565.55,-445.67"/>
<polygon fill="black" stroke="black" points="565.01,-449.13 575.31,-446.66 565.71,-442.16 565.01,-449.13"/>
</g>
<!-- 139808012220720 -->
<g id="node4" class="node">
<title>139808012220720</title>
<polygon fill="lightblue" stroke="black" points="11.62,-440.5 11.62,-476.5 244.12,-476.5 244.12,-440.5 11.62,-440.5"/>
<text xml:space="preserve" text-anchor="middle" x="25.62" y="-454.2" font-family="Times,serif" font-size="14.00">+</text>
<polyline fill="none" stroke="black" points="39.62,-441.25 39.62,-476.5"/>
<text xml:space="preserve" text-anchor="middle" x="90.38" y="-454.2" font-family="Times,serif" font-size="14.00">data 0.9183</text>
<polyline fill="none" stroke="black" points="141.12,-441.25 141.12,-476.5"/>
<text xml:space="preserve" text-anchor="middle" x="192.62" y="-454.2" font-family="Times,serif" font-size="14.00">grad 0.0000</text>
</g>
<!-- 139808012220720&#45;&gt;139808012220832 -->
<g id="edge22" class="edge">
<title>139808012220720&#45;&gt;139808012220832</title>
<path fill="none" stroke="black" d="M244.49,-447.15C256.19,-446 268.14,-444.83 280.02,-443.66"/>
<polygon fill="black" stroke="black" points="280.26,-447.16 289.87,-442.7 279.57,-440.19 280.26,-447.16"/>
</g>
<!-- 139808012217920 -->
<g id="node5" class="node">
<title>139808012217920</title>
<polygon fill="white" stroke="black" points="25.62,-55.5 25.62,-91.5 230.12,-91.5 230.12,-55.5 25.62,-55.5"/>
<text xml:space="preserve" text-anchor="middle" x="76.38" y="-69.2" font-family="Times,serif" font-size="14.00">data 1.0000</text>
<polyline fill="none" stroke="black" points="127.12,-56.25 127.12,-91.5"/>
<text xml:space="preserve" text-anchor="middle" x="178.62" y="-69.2" font-family="Times,serif" font-size="14.00">grad 0.0000</text>
</g>
<!-- 139808012217920&#45;&gt;139808012218256 -->
<g id="edge24" class="edge">
<title>139808012217920&#45;&gt;139808012218256</title>
<path fill="none" stroke="black" d="M230.25,-73.5C249.61,-73.5 270.09,-73.5 290.07,-73.5"/>
<polygon fill="black" stroke="black" points="289.92,-77 299.92,-73.5 289.92,-70 289.92,-77"/>
</g>
<!-- 139808012217584 -->
<g id="node6" class="node">
<title>139808012217584</title>
<polygon fill="lightblue" stroke="black" points="574.5,-303.5 574.5,-339.5 811.5,-339.5 811.5,-303.5 574.5,-303.5"/>
<text xml:space="preserve" text-anchor="middle" x="588.5" y="-317.2" font-family="Times,serif" font-size="14.00">+</text>
<polyline fill="none" stroke="black" points="602.5,-304.25 602.5,-339.5"/>
<text xml:space="preserve" text-anchor="middle" x="655.5" y="-317.2" font-family="Times,serif" font-size="14.00">data &#45;0.0886</text>
<polyline fill="none" stroke="black" points="708.5,-304.25 708.5,-339.5"/>
<text xml:space="preserve" text-anchor="middle" x="760" y="-317.2" font-family="Times,serif" font-size="14.00">grad 0.0000</text>
</g>
<!-- 139808012219376 -->
<g id="node23" class="node">
<title>139808012219376</title>
<polygon fill="lightblue" stroke="black" points="847.5,-303.5 847.5,-339.5 1084.5,-339.5 1084.5,-303.5 847.5,-303.5"/>
<text xml:space="preserve" text-anchor="middle" x="861.5" y="-317.2" font-family="Times,serif" font-size="14.00">+</text>
<polyline fill="none" stroke="black" points="875.5,-304.25 875.5,-339.5"/>
<text xml:space="preserve" text-anchor="middle" x="928.5" y="-317.2" font-family="Times,serif" font-size="14.00">data &#45;0.0886</text>
<polyline fill="none" stroke="black" points="981.5,-304.25 981.5,-339.5"/>
<text xml:space="preserve" text-anchor="middle" x="1033" y="-317.2" font-family="Times,serif" font-size="14.00">grad 0.0000</text>
</g>
<!-- 139808012217584&#45;&gt;139808012219376 -->
<g id="edge12" class="edge">
<title>139808012217584&#45;&gt;139808012219376</title>
<path fill="none" stroke="black" d="M811.68,-321.5C819.64,-321.5 827.69,-321.5 835.7,-321.5"/>
<polygon fill="black" stroke="black" points="835.49,-325 845.49,-321.5 835.49,-318 835.49,-325"/>
</g>
<!-- 139808012217472 -->
<g id="node7" class="node">
<title>139808012217472</title>
<polygon fill="lightblue" stroke="black" points="298.88,-330.5 298.88,-366.5 531.38,-366.5 531.38,-330.5 298.88,-330.5"/>
<text xml:space="preserve" text-anchor="middle" x="312.88" y="-344.2" font-family="Times,serif" font-size="14.00">+</text>
<polyline fill="none" stroke="black" points="326.88,-331.25 326.88,-366.5"/>
<text xml:space="preserve" text-anchor="middle" x="377.62" y="-344.2" font-family="Times,serif" font-size="14.00">data 0.0000</text>
<polyline fill="none" stroke="black" points="428.38,-331.25 428.38,-366.5"/>
<text xml:space="preserve" text-anchor="middle" x="479.88" y="-344.2" font-family="Times,serif" font-size="14.00">grad 0.0000</text>
</g>
<!-- 139808012217472&#45;&gt;139808012217584 -->
<g id="edge19" class="edge">
<title>139808012217472&#45;&gt;139808012217584</title>
<path fill="none" stroke="black" d="M531.52,-337.21C541.93,-336.19 552.52,-335.15 563.03,-334.12"/>
<polygon fill="black" stroke="black" points="563.29,-337.61 572.9,-333.16 562.6,-330.65 563.29,-337.61"/>
</g>
<!-- 139808012221056 -->
<g id="node8" class="node">
<title>139808012221056</title>
<polygon fill="lightblue" stroke="black" points="847.5,-440.5 847.5,-476.5 1084.5,-476.5 1084.5,-440.5 847.5,-440.5"/>
<text xml:space="preserve" text-anchor="middle" x="861.5" y="-454.2" font-family="Times,serif" font-size="14.00">+</text>
<polyline fill="none" stroke="black" points="875.5,-441.25 875.5,-476.5"/>
<text xml:space="preserve" text-anchor="middle" x="928.5" y="-454.2" font-family="Times,serif" font-size="14.00">data &#45;0.0852</text>
<polyline fill="none" stroke="black" points="981.5,-441.25 981.5,-476.5"/>
<text xml:space="preserve" text-anchor="middle" x="1033" y="-454.2" font-family="Times,serif" font-size="14.00">grad 0.0000</text>
</g>
<!-- 139808012221168 -->
<g id="node19" class="node">
<title>139808012221168</title>
<polygon fill="lightblue" stroke="black" points="1120.5,-358.5 1120.5,-394.5 1357.5,-394.5 1357.5,-358.5 1120.5,-358.5"/>
<text xml:space="preserve" text-anchor="middle" x="1134.5" y="-372.2" font-family="Times,serif" font-size="14.00">+</text>
<polyline fill="none" stroke="black" points="1148.5,-359.25 1148.5,-394.5"/>
<text xml:space="preserve" text-anchor="middle" x="1201.5" y="-372.2" font-family="Times,serif" font-size="14.00">data &#45;0.1738</text>
<polyline fill="none" stroke="black" points="1254.5,-359.25 1254.5,-394.5"/>
<text xml:space="preserve" text-anchor="middle" x="1306" y="-372.2" font-family="Times,serif" font-size="14.00">grad 0.0000</text>
</g>
<!-- 139808012221056&#45;&gt;139808012221168 -->
<g id="edge7" class="edge">
<title>139808012221056&#45;&gt;139808012221168</title>
<path fill="none" stroke="black" d="M1015.32,-440.05C1045.33,-428.95 1084.86,-414.98 1120.5,-404.5 1128.25,-402.22 1136.32,-400 1144.45,-397.86"/>
<polygon fill="black" stroke="black" points="1145.26,-401.26 1154.07,-395.38 1143.51,-394.48 1145.26,-401.26"/>
</g>
<!-- 139808012219152 -->
<g id="node9" class="node">
<title>139808012219152</title>
<polygon fill="lightblue" stroke="black" points="301.5,-138.5 301.5,-174.5 528.75,-174.5 528.75,-138.5 301.5,-138.5"/>
<text xml:space="preserve" text-anchor="middle" x="312.88" y="-152.2" font-family="Times,serif" font-size="14.00">*</text>
<polyline fill="none" stroke="black" points="324.25,-139.25 324.25,-174.5"/>
<text xml:space="preserve" text-anchor="middle" x="375" y="-152.2" font-family="Times,serif" font-size="14.00">data 0.0000</text>
<polyline fill="none" stroke="black" points="425.75,-139.25 425.75,-174.5"/>
<text xml:space="preserve" text-anchor="middle" x="477.25" y="-152.2" font-family="Times,serif" font-size="14.00">grad 0.0000</text>
</g>
<!-- 139808012219152&#45;&gt;139808012219264 -->
<g id="edge18" class="edge">
<title>139808012219152&#45;&gt;139808012219264</title>
<path fill="none" stroke="black" d="M529.13,-156.5C540.97,-156.5 553.06,-156.5 565.05,-156.5"/>
<polygon fill="black" stroke="black" points="564.98,-160 574.98,-156.5 564.98,-153 564.98,-160"/>
</g>
<!-- 139808012221616 -->
<g id="node10" class="node">
<title>139808012221616</title>
<polygon fill="white" stroke="black" points="1134.5,-523.5 1134.5,-559.5 1343.5,-559.5 1343.5,-523.5 1134.5,-523.5"/>
<text xml:space="preserve" text-anchor="middle" x="1187.5" y="-537.2" font-family="Times,serif" font-size="14.00">data &#45;1.0000</text>
<polyline fill="none" stroke="black" points="1240.5,-524.25 1240.5,-559.5"/>
<text xml:space="preserve" text-anchor="middle" x="1292" y="-537.2" font-family="Times,serif" font-size="14.00">grad 0.0000</text>
</g>
<!-- 139808012221728 -->
<g id="node30" class="node">
<title>139808012221728</title>
<polygon fill="lightblue" stroke="black" points="1393.5,-468.5 1393.5,-504.5 1654.5,-504.5 1654.5,-468.5 1393.5,-468.5"/>
<text xml:space="preserve" text-anchor="middle" x="1421.75" y="-482.2" font-family="Times,serif" font-size="14.00">**&#45;1.0</text>
<polyline fill="none" stroke="black" points="1450,-469.25 1450,-504.5"/>
<text xml:space="preserve" text-anchor="middle" x="1500.75" y="-482.2" font-family="Times,serif" font-size="14.00">data 0.0769</text>
<polyline fill="none" stroke="black" points="1551.5,-469.25 1551.5,-504.5"/>
<text xml:space="preserve" text-anchor="middle" x="1603" y="-482.2" font-family="Times,serif" font-size="14.00">grad 0.0000</text>
</g>
<!-- 139808012221616&#45;&gt;139808012221728 -->
<g id="edge3" class="edge">
<title>139808012221616&#45;&gt;139808012221728</title>
<path fill="none" stroke="black" d="M1335.02,-523.03C1361.41,-517.9 1390.23,-512.3 1417.2,-507.06"/>
<polygon fill="black" stroke="black" points="1417.59,-510.55 1426.74,-505.21 1416.26,-503.68 1417.59,-510.55"/>
</g>
<!-- 139808012221504 -->
<g id="node11" class="node">
<title>139808012221504</title>
<polygon fill="white" stroke="black" points="1132.25,-468.5 1132.25,-504.5 1345.75,-504.5 1345.75,-468.5 1132.25,-468.5"/>
<text xml:space="preserve" text-anchor="middle" x="1187.5" y="-482.2" font-family="Times,serif" font-size="14.00">data 13.0000</text>
<polyline fill="none" stroke="black" points="1242.75,-469.25 1242.75,-504.5"/>
<text xml:space="preserve" text-anchor="middle" x="1294.25" y="-482.2" font-family="Times,serif" font-size="14.00">grad 0.0000</text>
</g>
<!-- 139808012221504&#45;&gt;139808012221728 -->
<g id="edge4" class="edge">
<title>139808012221504&#45;&gt;139808012221728</title>
<path fill="none" stroke="black" d="M1346.18,-486.5C1357.83,-486.5 1369.82,-486.5 1381.81,-486.5"/>
<polygon fill="black" stroke="black" points="1381.77,-490 1391.77,-486.5 1381.77,-483 1381.77,-490"/>
</g>
<!-- 139808012217360 -->
<g id="node12" class="node">
<title>139808012217360</title>
<polygon fill="lightblue" stroke="black" points="14.25,-385.5 14.25,-421.5 241.5,-421.5 241.5,-385.5 14.25,-385.5"/>
<text xml:space="preserve" text-anchor="middle" x="25.62" y="-399.2" font-family="Times,serif" font-size="14.00">*</text>
<polyline fill="none" stroke="black" points="37,-386.25 37,-421.5"/>
<text xml:space="preserve" text-anchor="middle" x="87.75" y="-399.2" font-family="Times,serif" font-size="14.00">data 0.0000</text>
<polyline fill="none" stroke="black" points="138.5,-386.25 138.5,-421.5"/>
<text xml:space="preserve" text-anchor="middle" x="190" y="-399.2" font-family="Times,serif" font-size="14.00">grad 0.0000</text>
</g>
<!-- 139808012217360&#45;&gt;139808012217472 -->
<g id="edge28" class="edge">
<title>139808012217360&#45;&gt;139808012217472</title>
<path fill="none" stroke="black" d="M224.65,-385.03C251.25,-379.9 280.3,-374.3 307.48,-369.06"/>
<polygon fill="black" stroke="black" points="307.96,-372.54 317.11,-367.21 306.63,-365.66 307.96,-372.54"/>
</g>
<!-- 139808012219936 -->
<g id="node13" class="node">
<title>139808012219936</title>
<polygon fill="lightblue" stroke="black" points="291.75,-577.5 291.75,-613.5 538.5,-613.5 538.5,-577.5 291.75,-577.5"/>
<text xml:space="preserve" text-anchor="middle" x="310.62" y="-591.2" font-family="Times,serif" font-size="14.00">log</text>
<polyline fill="none" stroke="black" points="329.5,-578.25 329.5,-613.5"/>
<text xml:space="preserve" text-anchor="middle" x="382.5" y="-591.2" font-family="Times,serif" font-size="14.00">data &#45;2.5046</text>
<polyline fill="none" stroke="black" points="435.5,-578.25 435.5,-613.5"/>
<text xml:space="preserve" text-anchor="middle" x="487" y="-591.2" font-family="Times,serif" font-size="14.00">grad 0.0000</text>
</g>
<!-- 139808012220048 -->
<g id="node22" class="node">
<title>139808012220048</title>
<polygon fill="lightblue" stroke="black" points="579.38,-522.5 579.38,-558.5 806.62,-558.5 806.62,-522.5 579.38,-522.5"/>
<text xml:space="preserve" text-anchor="middle" x="590.75" y="-536.2" font-family="Times,serif" font-size="14.00">*</text>
<polyline fill="none" stroke="black" points="602.12,-523.25 602.12,-558.5"/>
<text xml:space="preserve" text-anchor="middle" x="652.88" y="-536.2" font-family="Times,serif" font-size="14.00">data 0.0000</text>
<polyline fill="none" stroke="black" points="703.62,-523.25 703.62,-558.5"/>
<text xml:space="preserve" text-anchor="middle" x="755.12" y="-536.2" font-family="Times,serif" font-size="14.00">grad 0.0000</text>
</g>
<!-- 139808012219936&#45;&gt;139808012220048 -->
<g id="edge13" class="edge">
<title>139808012219936&#45;&gt;139808012220048</title>
<path fill="none" stroke="black" d="M508.75,-577.03C534.37,-571.93 562.32,-566.35 588.51,-561.13"/>
<polygon fill="black" stroke="black" points="589.01,-564.6 598.13,-559.21 587.64,-557.74 589.01,-564.6"/>
</g>
<!-- 139808012215792 -->
<g id="node14" class="node">
<title>139808012215792</title>
<polygon fill="lightblue" stroke="black" points="296.62,-275.5 296.62,-311.5 533.62,-311.5 533.62,-275.5 296.62,-275.5"/>
<text xml:space="preserve" text-anchor="middle" x="310.62" y="-289.2" font-family="Times,serif" font-size="14.00">+</text>
<polyline fill="none" stroke="black" points="324.62,-276.25 324.62,-311.5"/>
<text xml:space="preserve" text-anchor="middle" x="377.62" y="-289.2" font-family="Times,serif" font-size="14.00">data &#45;0.0886</text>
<polyline fill="none" stroke="black" points="430.62,-276.25 430.62,-311.5"/>
<text xml:space="preserve" text-anchor="middle" x="482.12" y="-289.2" font-family="Times,serif" font-size="14.00">grad 0.0000</text>
</g>
<!-- 139808012215792&#45;&gt;139808012217584 -->
<g id="edge20" class="edge">
<title>139808012215792&#45;&gt;139808012217584</title>
<path fill="none" stroke="black" d="M533.92,-305.46C543.5,-306.43 553.21,-307.41 562.86,-308.39"/>
<polygon fill="black" stroke="black" points="562.35,-311.86 572.65,-309.39 563.06,-304.89 562.35,-311.86"/>
</g>
<!-- 139808012219824 -->
<g id="node15" class="node">
<title>139808012219824</title>
<polygon fill="lightblue" stroke="black" points="11.62,-577.5 11.62,-613.5 244.12,-613.5 244.12,-577.5 11.62,-577.5"/>
<text xml:space="preserve" text-anchor="middle" x="25.62" y="-591.2" font-family="Times,serif" font-size="14.00">+</text>
<polyline fill="none" stroke="black" points="39.62,-578.25 39.62,-613.5"/>
<text xml:space="preserve" text-anchor="middle" x="90.38" y="-591.2" font-family="Times,serif" font-size="14.00">data 0.0817</text>
<polyline fill="none" stroke="black" points="141.12,-578.25 141.12,-613.5"/>
<text xml:space="preserve" text-anchor="middle" x="192.62" y="-591.2" font-family="Times,serif" font-size="14.00">grad 0.0000</text>
</g>
<!-- 139808012219824&#45;&gt;139808012219936 -->
<g id="edge21" class="edge">
<title>139808012219824&#45;&gt;139808012219936</title>
<path fill="none" stroke="black" d="M244.49,-595.5C256.19,-595.5 268.14,-595.5 280.02,-595.5"/>
<polygon fill="black" stroke="black" points="279.86,-599 289.86,-595.5 279.86,-592 279.86,-599"/>
</g>
<!-- 139808012219040 -->
<g id="node16" class="node">
<title>139808012219040</title>
<polygon fill="lightblue" stroke="black" points="0,-165.5 0,-201.5 255.75,-201.5 255.75,-165.5 0,-165.5"/>
<text xml:space="preserve" text-anchor="middle" x="18.88" y="-179.2" font-family="Times,serif" font-size="14.00">log</text>
<polyline fill="none" stroke="black" points="37.75,-166.25 37.75,-201.5"/>
<text xml:space="preserve" text-anchor="middle" x="95.25" y="-179.2" font-family="Times,serif" font-size="14.00">data &#45;11.3692</text>
<polyline fill="none" stroke="black" points="152.75,-166.25 152.75,-201.5"/>
<text xml:space="preserve" text-anchor="middle" x="204.25" y="-179.2" font-family="Times,serif" font-size="14.00">grad 0.0000</text>
</g>
<!-- 139808012219040&#45;&gt;139808012219152 -->
<g id="edge26" class="edge">
<title>139808012219040&#45;&gt;139808012219152</title>
<path fill="none" stroke="black" d="M256.07,-171.46C267.32,-170.4 278.7,-169.32 289.93,-168.26"/>
<polygon fill="black" stroke="black" points="289.97,-171.77 299.59,-167.34 289.31,-164.8 289.97,-171.77"/>
</g>
<!-- 139808012216464 -->
<g id="node17" class="node">
<title>139808012216464</title>
<polygon fill="lightblue" stroke="black" points="14.25,-330.5 14.25,-366.5 241.5,-366.5 241.5,-330.5 14.25,-330.5"/>
<text xml:space="preserve" text-anchor="middle" x="25.62" y="-344.2" font-family="Times,serif" font-size="14.00">*</text>
<polyline fill="none" stroke="black" points="37,-331.25 37,-366.5"/>
<text xml:space="preserve" text-anchor="middle" x="87.75" y="-344.2" font-family="Times,serif" font-size="14.00">data 0.0000</text>
<polyline fill="none" stroke="black" points="138.5,-331.25 138.5,-366.5"/>
<text xml:space="preserve" text-anchor="middle" x="190" y="-344.2" font-family="Times,serif" font-size="14.00">grad 0.0000</text>
</g>
<!-- 139808012216464&#45;&gt;139808012217472 -->
<g id="edge27" class="edge">
<title>139808012216464&#45;&gt;139808012217472</title>
<path fill="none" stroke="black" d="M241.61,-348.5C256.5,-348.5 271.85,-348.5 286.96,-348.5"/>
<polygon fill="black" stroke="black" points="286.95,-352 296.95,-348.5 286.95,-345 286.95,-352"/>
</g>
<!-- 139808012221280 -->
<g id="node18" class="node">
<title>139808012221280</title>
<polygon fill="white" stroke="black" points="1134.5,-413.5 1134.5,-449.5 1343.5,-449.5 1343.5,-413.5 1134.5,-413.5"/>
<text xml:space="preserve" text-anchor="middle" x="1187.5" y="-427.2" font-family="Times,serif" font-size="14.00">data &#45;1.0000</text>
<polyline fill="none" stroke="black" points="1240.5,-414.25 1240.5,-449.5"/>
<text xml:space="preserve" text-anchor="middle" x="1292" y="-427.2" font-family="Times,serif" font-size="14.00">grad 0.0000</text>
</g>
<!-- 139808012221392 -->
<g id="node28" class="node">
<title>139808012221392</title>
<polygon fill="lightblue" stroke="black" points="1410.38,-413.5 1410.38,-449.5 1637.62,-449.5 1637.62,-413.5 1410.38,-413.5"/>
<text xml:space="preserve" text-anchor="middle" x="1421.75" y="-427.2" font-family="Times,serif" font-size="14.00">*</text>
<polyline fill="none" stroke="black" points="1433.12,-414.25 1433.12,-449.5"/>
<text xml:space="preserve" text-anchor="middle" x="1483.88" y="-427.2" font-family="Times,serif" font-size="14.00">data 0.1738</text>
<polyline fill="none" stroke="black" points="1534.62,-414.25 1534.62,-449.5"/>
<text xml:space="preserve" text-anchor="middle" x="1586.12" y="-427.2" font-family="Times,serif" font-size="14.00">grad 0.0000</text>
</g>
<!-- 139808012221280&#45;&gt;139808012221392 -->
<g id="edge5" class="edge">
<title>139808012221280&#45;&gt;139808012221392</title>
<path fill="none" stroke="black" d="M1343.77,-431.5C1361.67,-431.5 1380.43,-431.5 1398.81,-431.5"/>
<polygon fill="black" stroke="black" points="1398.67,-435 1408.67,-431.5 1398.67,-428 1398.67,-435"/>
</g>
<!-- 139808012221168&#45;&gt;139808012221392 -->
<g id="edge6" class="edge">
<title>139808012221168&#45;&gt;139808012221392</title>
<path fill="none" stroke="black" d="M1335.02,-394.97C1361.41,-400.1 1390.23,-405.7 1417.2,-410.94"/>
<polygon fill="black" stroke="black" points="1416.26,-414.32 1426.74,-412.79 1417.59,-407.45 1416.26,-414.32"/>
</g>
<!-- 139808012218144 -->
<g id="node20" class="node">
<title>139808012218144</title>
<polygon fill="lightblue" stroke="black" points="6.75,-0.5 6.75,-36.5 249,-36.5 249,-0.5 6.75,-0.5"/>
<text xml:space="preserve" text-anchor="middle" x="25.62" y="-14.2" font-family="Times,serif" font-size="14.00">log</text>
<polyline fill="none" stroke="black" points="44.5,-1.25 44.5,-36.5"/>
<text xml:space="preserve" text-anchor="middle" x="95.25" y="-14.2" font-family="Times,serif" font-size="14.00">data 0.0000</text>
<polyline fill="none" stroke="black" points="146,-1.25 146,-36.5"/>
<text xml:space="preserve" text-anchor="middle" x="197.5" y="-14.2" font-family="Times,serif" font-size="14.00">grad 0.0000</text>
</g>
<!-- 139808012218144&#45;&gt;139808012218256 -->
<g id="edge23" class="edge">
<title>139808012218144&#45;&gt;139808012218256</title>
<path fill="none" stroke="black" d="M224.65,-36.97C251.25,-42.1 280.3,-47.7 307.48,-52.94"/>
<polygon fill="black" stroke="black" points="306.63,-56.34 317.11,-54.79 307.96,-49.46 306.63,-56.34"/>
</g>
<!-- 139808012214000 -->
<g id="node21" class="node">
<title>139808012214000</title>
<polygon fill="lightblue" stroke="black" points="9.38,-275.5 9.38,-311.5 246.38,-311.5 246.38,-275.5 9.38,-275.5"/>
<text xml:space="preserve" text-anchor="middle" x="23.38" y="-289.2" font-family="Times,serif" font-size="14.00">+</text>
<polyline fill="none" stroke="black" points="37.38,-276.25 37.38,-311.5"/>
<text xml:space="preserve" text-anchor="middle" x="90.38" y="-289.2" font-family="Times,serif" font-size="14.00">data &#45;0.0886</text>
<polyline fill="none" stroke="black" points="143.38,-276.25 143.38,-311.5"/>
<text xml:space="preserve" text-anchor="middle" x="194.88" y="-289.2" font-family="Times,serif" font-size="14.00">grad 0.0000</text>
</g>
<!-- 139808012214000&#45;&gt;139808012215792 -->
<g id="edge30" class="edge">
<title>139808012214000&#45;&gt;139808012215792</title>
<path fill="none" stroke="black" d="M246.54,-293.5C259.24,-293.5 272.22,-293.5 285.04,-293.5"/>
<polygon fill="black" stroke="black" points="284.75,-297 294.75,-293.5 284.75,-290 284.75,-297"/>
</g>
<!-- 139808012220048&#45;&gt;139808012221056 -->
<g id="edge9" class="edge">
<title>139808012220048&#45;&gt;139808012221056</title>
<path fill="none" stroke="black" d="M754.82,-522.1C795.73,-509.72 849.86,-493.34 892.93,-480.31"/>
<polygon fill="black" stroke="black" points="893.91,-483.67 902.47,-477.42 891.88,-476.97 893.91,-483.67"/>
</g>
<!-- 139808012219376&#45;&gt;139808012221168 -->
<g id="edge8" class="edge">
<title>139808012219376&#45;&gt;139808012221168</title>
<path fill="none" stroke="black" d="M1057.99,-339.97C1083.04,-345.05 1110.37,-350.6 1136,-355.8"/>
<polygon fill="black" stroke="black" points="1135.27,-359.22 1145.76,-357.78 1136.66,-352.36 1135.27,-359.22"/>
</g>
<!-- 139808012219264&#45;&gt;139808012219376 -->
<g id="edge11" class="edge">
<title>139808012219264&#45;&gt;139808012219376</title>
<path fill="none" stroke="black" d="M724.3,-174.95C773.45,-204.87 870.55,-263.99 925.21,-297.27"/>
<polygon fill="black" stroke="black" points="923.24,-300.17 933.6,-302.38 926.88,-294.19 923.24,-300.17"/>
</g>
<!-- 139808012221840 -->
<g id="node25" class="node">
<title>139808012221840</title>
<polygon fill="lightblue" stroke="black" points="1690.5,-440.5 1690.5,-476.5 1917.75,-476.5 1917.75,-440.5 1690.5,-440.5"/>
<text xml:space="preserve" text-anchor="middle" x="1701.88" y="-454.2" font-family="Times,serif" font-size="14.00">*</text>
<polyline fill="none" stroke="black" points="1713.25,-441.25 1713.25,-476.5"/>
<text xml:space="preserve" text-anchor="middle" x="1764" y="-454.2" font-family="Times,serif" font-size="14.00">data 0.0134</text>
<polyline fill="none" stroke="black" points="1814.75,-441.25 1814.75,-476.5"/>
<text xml:space="preserve" text-anchor="middle" x="1866.25" y="-454.2" font-family="Times,serif" font-size="14.00">grad 0.0000</text>
</g>
<!-- 139808012215680 -->
<g id="node26" class="node">
<title>139808012215680</title>
<polygon fill="lightblue" stroke="black" points="11.62,-220.5 11.62,-256.5 244.12,-256.5 244.12,-220.5 11.62,-220.5"/>
<text xml:space="preserve" text-anchor="middle" x="25.62" y="-234.2" font-family="Times,serif" font-size="14.00">+</text>
<polyline fill="none" stroke="black" points="39.62,-221.25 39.62,-256.5"/>
<text xml:space="preserve" text-anchor="middle" x="90.38" y="-234.2" font-family="Times,serif" font-size="14.00">data 0.0000</text>
<polyline fill="none" stroke="black" points="141.12,-221.25 141.12,-256.5"/>
<text xml:space="preserve" text-anchor="middle" x="192.62" y="-234.2" font-family="Times,serif" font-size="14.00">grad 0.0000</text>
</g>
<!-- 139808012215680&#45;&gt;139808012215792 -->
<g id="edge29" class="edge">
<title>139808012215680&#45;&gt;139808012215792</title>
<path fill="none" stroke="black" d="M224.65,-256.97C251.25,-262.1 280.3,-267.7 307.48,-272.94"/>
<polygon fill="black" stroke="black" points="306.63,-276.34 317.11,-274.79 307.96,-269.46 306.63,-276.34"/>
</g>
<!-- 139808012218368 -->
<g id="node27" class="node">
<title>139808012218368</title>
<polygon fill="white" stroke="black" points="25.62,-110.5 25.62,-146.5 230.12,-146.5 230.12,-110.5 25.62,-110.5"/>
<text xml:space="preserve" text-anchor="middle" x="76.38" y="-124.2" font-family="Times,serif" font-size="14.00">data 0.0000</text>
<polyline fill="none" stroke="black" points="127.12,-111.25 127.12,-146.5"/>
<text xml:space="preserve" text-anchor="middle" x="178.62" y="-124.2" font-family="Times,serif" font-size="14.00">grad 0.0000</text>
</g>
<!-- 139808012218368&#45;&gt;139808012219152 -->
<g id="edge25" class="edge">
<title>139808012218368&#45;&gt;139808012219152</title>
<path fill="none" stroke="black" d="M230.25,-138.45C249.61,-140.35 270.09,-142.36 290.07,-144.32"/>
<polygon fill="black" stroke="black" points="289.64,-147.8 299.93,-145.29 290.32,-140.83 289.64,-147.8"/>
</g>
<!-- 139808012221392&#45;&gt;139808012221840 -->
<g id="edge2" class="edge">
<title>139808012221392&#45;&gt;139808012221840</title>
<path fill="none" stroke="black" d="M1638.12,-442.48C1651.52,-443.78 1665.25,-445.11 1678.78,-446.43"/>
<polygon fill="black" stroke="black" points="1678.3,-449.9 1688.59,-447.38 1678.98,-442.93 1678.3,-449.9"/>
</g>
<!-- 139808012219712 -->
<g id="node29" class="node">
<title>139808012219712</title>
<polygon fill="white" stroke="black" points="312.88,-522.5 312.88,-558.5 517.38,-558.5 517.38,-522.5 312.88,-522.5"/>
<text xml:space="preserve" text-anchor="middle" x="363.62" y="-536.2" font-family="Times,serif" font-size="14.00">data 0.0000</text>
<polyline fill="none" stroke="black" points="414.38,-523.25 414.38,-558.5"/>
<text xml:space="preserve" text-anchor="middle" x="465.88" y="-536.2" font-family="Times,serif" font-size="14.00">grad 0.0000</text>
</g>
<!-- 139808012219712&#45;&gt;139808012220048 -->
<g id="edge14" class="edge">
<title>139808012219712&#45;&gt;139808012220048</title>
<path fill="none" stroke="black" d="M517.68,-540.5C533.9,-540.5 550.85,-540.5 567.54,-540.5"/>
<polygon fill="black" stroke="black" points="567.52,-544 577.52,-540.5 567.52,-537 567.52,-544"/>
</g>
<!-- 139808012221728&#45;&gt;139808012221840 -->
<g id="edge1" class="edge">
<title>139808012221728&#45;&gt;139808012221840</title>
<path fill="none" stroke="black" d="M1654.7,-473.44C1662.78,-472.63 1670.91,-471.81 1678.97,-471"/>
<polygon fill="black" stroke="black" points="1679.21,-474.49 1688.81,-470.01 1678.5,-467.53 1679.21,-474.49"/>
</g>
<!-- 139808012220944&#45;&gt;139808012221056 -->
<g id="edge10" class="edge">
<title>139808012220944&#45;&gt;139808012221056</title>
<path fill="none" stroke="black" d="M809.32,-458.5C818.13,-458.5 827.06,-458.5 835.95,-458.5"/>
<polygon fill="black" stroke="black" points="835.67,-462 845.67,-458.5 835.67,-455 835.67,-462"/>
</g>
</g>
</svg>
